<svg width="400" height="400" viewBox="0 0 400 400" fill="none" xmlns="http://www.w3.org/2000/svg">
<rect width="400" height="400" fill="white"/>
<rect width="400" height="400" fill="white"/>
<path d="M203.6 162.7C203.6 166.298 203.955 169.815 204.753 173.165C165.075 170.993 129.969 151.916 106.388 122.984L105.93 122.422L105.567 123.05C101.425 130.223 99 138.608 99 147.5C99 163.747 106.963 178.214 119.28 187.024C112.116 186.572 105.399 184.462 99.4422 181.163L98.7 180.752V181.6V181.601V181.602V181.604V181.605V181.606V181.607V181.608V181.609V181.611V181.612V181.613V181.614V181.615V181.616V181.618V181.619V181.62V181.621V181.622V181.623V181.625V181.626V181.627V181.628V181.629V181.63V181.632V181.633V181.634V181.635V181.636V181.638V181.639V181.64V181.641V181.642V181.643V181.645V181.646V181.647V181.648V181.649V181.65V181.652V181.653V181.654V181.655V181.656V181.657V181.659V181.66V181.661V181.662V181.663V181.664V181.666V181.667V181.668V181.669V181.67V181.671V181.673V181.674V181.675V181.676V181.677V181.679V181.68V181.681V181.682V181.683V181.684V181.686V181.687V181.688V181.689V181.69V181.691V181.693V181.694V181.695V181.696V181.697V181.698V181.7V181.701V181.702V181.703V181.704V181.705V181.707V181.708V181.709V181.71V181.711V181.713V181.714V181.715V181.716V181.717V181.718V181.72V181.721V181.722V181.723V181.724V181.725V181.727V181.728V181.729V181.73V181.731V181.732V181.734V181.735V181.736V181.737V181.738V181.739V181.741V181.742V181.743V181.744V181.745V181.746V181.748V181.749V181.75V181.751V181.752V181.754V181.755V181.756V181.757V181.758V181.759V181.761V181.762V181.763V181.764V181.765V181.766V181.768V181.769V181.77V181.771V181.772V181.773V181.775V181.776V181.777V181.778V181.779V181.78V181.782V181.783V181.784V181.785V181.786V181.788V181.789V181.79V181.791V181.792V181.793V181.795V181.796V181.797V181.798V181.799V181.8V181.802V181.803V181.804V181.805V181.806V181.807V181.809V181.81V181.811V181.812V181.813V181.814V181.816V181.817V181.818V181.819V181.82V181.821V181.823V181.824V181.825V181.826V181.827V181.829V181.83V181.831V181.832V181.833V181.834V181.836V181.837V181.838V181.839V181.84V181.841V181.843V181.844V181.845V181.846V181.847V181.848V181.85V181.851V181.852V181.853V181.854V181.855V181.857V181.858V181.859V181.86V181.861V181.863V181.864V181.865V181.866V181.867V181.868V181.87V181.871V181.872V181.873V181.874V181.875V181.877V181.878V181.879V181.88V181.881V181.882V181.884V181.885V181.886V181.887V181.888V181.889V181.891V181.892V181.893V181.894V181.895V181.896V181.898V181.899V181.9V181.901V181.902V181.904V181.905V181.906V181.907V181.908V181.909V181.911V181.912V181.913V181.914V181.915V181.916V181.918V181.919V181.92V181.921V181.922V181.923V181.925V181.926V181.927V181.928V181.929V181.93V181.932V181.933V181.934V181.935V181.936V181.938V181.939V181.94V181.941V181.942V181.943V181.945V181.946V181.947V181.948V181.949V181.95V181.952V181.953V181.954V181.955V181.956V181.957V181.959V181.96V181.961V181.962V181.963V181.964V181.966V181.967V181.968V181.969V181.97V181.971V181.973V181.974V181.975V181.976V181.977V181.979V181.98V181.981V181.982V181.983V181.984V181.986V181.987V181.988V181.989V181.99V181.991V181.993V181.994V181.995V181.996V181.997V181.998V182V182.001V182.002V182.003V182.004V182.005V182.007V182.008V182.009V182.01V182.011V182.012V182.014V182.015V182.016V182.017V182.018V182.02V182.021V182.022V182.023V182.024V182.025V182.027V182.028V182.029V182.03V182.031V182.032V182.034V182.035V182.036V182.037V182.038V182.039V182.041V182.042V182.043V182.044V182.045V182.046V182.048V182.049V182.05V182.051V182.052V182.054V182.055V182.056V182.057V182.058V182.059V182.061V182.062V182.063V182.064V182.065V182.066V182.068V182.069V182.07V182.071V182.072V182.073V182.075V182.076V182.077V182.078V182.079V182.08V182.082V182.083V182.084V182.085V182.086V182.087V182.089V182.09V182.091V182.092V182.093V182.095V182.096V182.097V182.098V182.099V182.1V182.102V182.103V182.104V182.105V182.106V182.107V182.109V182.11V182.111V182.112V182.113V182.114V182.116V182.117V182.118V182.119V182.12V182.121V182.123V182.124V182.125V182.126V182.127V182.129V182.13V182.131V182.132V182.133V182.134V182.136V182.137V182.138V182.139V182.14V182.141V182.143V182.144V182.145V182.146V182.147V182.148V182.15V182.151V182.152V182.153V182.154V182.155V182.157V182.158V182.159V182.16V182.161V182.162V182.164V182.165V182.166V182.167V182.168V182.17V182.171V182.172V182.173V182.174V182.175V182.177V182.178V182.179V182.18V182.181V182.182V182.184V182.185V182.186V182.187V182.188V182.189V182.191V182.192V182.193V182.194V182.195V182.196V182.198V182.199V182.2C98.7 205.112 114.452 224.227 135.744 229.525C132.375 230.289 128.822 230.7 125.2 230.7C122.133 230.7 119.166 230.403 116.198 229.81L115.367 229.643L115.623 230.451C121.652 249.426 138.988 263.277 159.692 264.254C143.457 276.576 123.185 283.9 101.2 283.9C97.3171 283.9 93.5394 283.701 89.7652 283.204L89.4263 284.118C110.606 297.971 136.101 306 163.4 306C252.434 306 301.1 232.215 301.1 168.3V168.294C301.1 166.293 301.1 164.277 301.012 162.346C310.369 155.538 318.533 147.052 325.015 137.378L325.975 135.946L324.398 136.643C316.507 140.129 308.022 142.601 299.101 143.901C308.243 137.822 315.176 128.826 318.576 118.152L318.975 116.902L317.845 117.57C308.67 122.996 298.516 126.955 287.674 129.155C278.792 119.777 266.242 114 252.3 114C225.424 114 203.6 135.824 203.6 162.7ZM399.5 200C399.5 310.224 310.224 399.5 200 399.5C89.7761 399.5 0.5 310.224 0.5 200C0.5 89.7761 89.7761 0.5 200 0.5C310.224 0.5 399.5 89.7761 399.5 200Z" fill="black" stroke="black"/>
</svg>
